<?xml version="1.0" encoding="utf-8"?>
<!-- Generator: Adobe Illustrator 26.0.1, SVG Export Plug-In . SVG Version: 6.00 Build 0)  -->
<svg version="1.1" xmlns="http://www.w3.org/2000/svg" xmlns:xlink="http://www.w3.org/1999/xlink" x="0px" y="0px"
	 viewBox="0 0 82.1 70.6" style="enable-background:new 0 0 82.1 70.6;" xml:space="preserve">
<style type="text/css">
	.st0{display:none;}
	.st1{fill:#1D8ACC;}
	.st2{display:none;fill:#1D8ACC;}
	.st3{opacity:0.35;}
	.st4{display:inline;}
	.st5{fill:none;stroke:#1D8ACC;stroke-width:2;stroke-miterlimit:10;}
</style>
<g id="Layer_1_copy_2">
	<g>
		<path d="M42,39c-0.9-0.2-2.7-0.7-5-0.3c-1.5,0.3-2.7,0.8-3.4,1.2c-0.6,0.5-1.3,1.1-2.1,1.8c-1,1-1.7,2-2.3,2.8
			c0.1-0.2,0.2-0.5,0.1-0.8c0-0.2-0.1-0.5-0.3-0.7c-0.7-0.9-1.3-1.7-1.9-2.6c-0.8-1.2-1.7-2-3.1-2.4c-2.2-0.6-3-2.8-2-4.9
			c0.4,0.6,0.8,1,1.1,1.6c0.5,1,1.4,0.7,2.1,0.6c0.8-0.2,0.7-1,0.8-1.6c0.1-0.6-0.6-1-0.9-1.5c-0.1-0.2-0.4-0.3-0.3-0.6
			c1.8-0.2,3.6,1.3,3.4,3.2C28.2,36.7,29,38,30,39.4c0.4,0.5,0.7,1.2,1.2,1.6c1.3-0.7,1.7-1.8,1.7-3.3c-0.1-2.7,0-5.4,0-8.2
			c0-0.6,0-1.1-0.9-1c-0.4,0.1-0.6-0.2-0.9-0.5c-1.4-1.6-3.3-2.1-5.3-1.3c-0.3,0.1-0.9,0.7-1.1,0.1c-0.2-0.5-0.4-1.3,0.5-1.8
			c1.7-0.8,3.5-1.3,5.4-1.5c1.9-0.3,3.7-0.3,5.6-0.2c0.5,0,0.9,0,1.2,0.6c0.4,0.9,1.6,0.9,2.1,0c0.7-1.1,1.7-0.6,2.6-0.5
			c0.9,0,0.5,0.9,0.5,1.5c0.1,0.9,0,1.8,0,2.6c0,0.7-0.2,1.1-0.9,1c-0.9-0.1-1.8,0.3-2.5-0.9C39,27.2,38,27.2,37.5,28
			c-0.2,0.3-0.3,0.6-0.7,0.6c-1.4-0.2-1.3,0.7-1.3,1.6c0,2.4,0,4.9,0,7.3c0,0.7,0.1,1.1,0.9,0.8c0.4-0.1,0.9-0.1,1.3-0.1
			c1.2-0.1,1.4-0.3,1-1.4c-0.2-0.7-0.6-1.2-1-1.7c-1.7-2.1-1.3-4.3,1.2-5.9c0,0.8,0,1.4,0,2.1c0,1,0.9,2,1.7,2.1
			c0.7,0,1.6-1.1,1.6-2c0-0.5,0-1.1,0-1.7c2,0.8,2.5,3.5,1.1,5.3c-0.7,0.9-1.3,1.7-1.4,2.9c0,0.6,0.1,1,0.8,1.1
			c0.9,0.1,1.9,1.2,2.6,0.7c0.5-0.3,0.2-1.7,0.2-2.6c0-3.6,0-7.1,0-10.7c0-1.4-0.3-2.7-1.3-3.9c-1.3-1.5-1.5-4.2,1.3-5.6
			c0,0.6,0.1,1.1,0,1.6c-0.4,1.4,0.5,1.9,1.5,2.3c0.6,0.3,2-0.8,2-1.6c0-0.6,0-1.2,0-1.8c0-0.1,0.1-0.1,0.1-0.2
			c1.6,0.8,2.2,2.9,1.4,4.5c-0.2,0.5-0.6,0.9-0.9,1.3c-0.6,0.7-0.9,1.5-0.9,2.4c0,5.4,0,10.8,0,16.2c0,0.1,0,0.3,0.1,0.7
			c1.7-1.4,3.2-2.6,4.7-3.9c0.1-0.1,0.2-0.3,0.2-0.4c-0.5-1.8,0-4.1-2.4-5c-0.2-0.1-0.4-0.2-0.3-0.4c0.2-0.3,0.5-0.7,1-0.6
			c0.4,0.1,0.8,0.3,1.1,0.5c2.2,1.3,4.2,3,5.3,5.2c0.6,1.1,1,1.8,2.1,2.5c1.2,0.8,1.1,1-0.1,2c-0.2,0.2-0.5,0.4-0.7,0.6
			c-0.4,0.2-0.7,1-1.2,0.6c-0.5-0.4-1.2-0.9-1-1.7c0.1-0.8-0.2-1.2-1-1.2c-0.1,0-0.3,0.1-0.3,0c-1.1-1.3-1.7-0.1-2.5,0.5
			c-1.1,0.8-2.1,1.8-3.1,2.6c-0.5,0.4-0.6,0.7-0.3,1.3c-0.8-1-1.9-2.2-3.6-3.4C45.7,40.5,44.2,39.5,42,39z"/>
		<path class="st0" d="M64.4,55.6c0.4-0.1,0.2-0.4,0.2-0.7c0.1-0.3,0.3-0.4,0.5-0.3c0.3,0,0.4,0.3,0.4,0.5c0.2,2.2,0.2,4.4,0.1,6.6
			c0,1,0.5,1,1.2,1c4.3,0,8.6,0,13,0c0.6,0,1.2,0,1.2,0.9c0,0.7-0.3,1.1-1,1.1c-1.2,0-2.5,0-3.7,0c-4.8,0-9.7,0-14.5,0
			c-1.6,0-2.5-0.8-3.6-2c1.5,0,2.7-0.1,3.8,0c1.1,0.1,1.4-0.3,1.4-1.4c0-8.6,0-17.2,0-25.8c0-1.5,0-1.6,1.6-1.6c2.6,0,5.3,0,7.9,0
			c0.4,0,0.9,0.2,1.1-0.2c0.2-0.4-0.4-0.6-0.7-0.9c-3.8-3-7.6-6-11.4-9.1c-1.6-1.3-3.5-2.2-4.7-3.8c-0.9-1.2-2.1-1.5-3.1-2.3
			c-0.3-0.2-0.8-0.4-0.5-0.9c0.2-0.4,0.6-0.6,1.1-0.5c1.3,0.2,2.3,1.2,2.4,2.6c0,0.4,0,0.8,0.5,0.9c0.4,0.1,0.8,0.1,0.8-0.4
			c0-0.5,0.3-0.4,0.5-0.2c0.3,0.2,0.6,0.4,0.9,0.6c6,4.8,12,9.6,18,14.4c0.6,0.4,1.1,0.9,1.6,1.3c0.2,0.2,0.4,0.3,0.3,0.6
			c-0.1,0.3-0.4,0.3-0.6,0.3c-4.2,0-8.3,0-12.5-0.1c-1.3,0-1.4,0-1.3,1.3c0.1,5.4,0.1,10.7,0.1,16.1c0,0.3,0,0.8-0.4,0.7
			C63.6,54,64.6,55.1,64.4,55.6z M65.3,50C65.3,50,65.3,50,65.3,50c0-0.6,0-1.1,0-1.7c0-0.4-0.2-0.6-0.6-0.6c-0.4,0-0.6,0.2-0.6,0.6
			c0,1.1,0,2.2,0,3.3c0,0.4,0.2,0.6,0.6,0.6c0.4,0,0.6-0.2,0.6-0.6C65.3,51.2,65.3,50.6,65.3,50z M64.6,47.2
			c0.5-0.1,0.7-0.3,0.8-0.8c0-0.5-0.2-0.8-0.7-0.8c-0.5,0-0.7,0.3-0.8,0.7C63.9,46.9,64.2,47.1,64.6,47.2z"/>
		<path class="st0" d="M18.1,47.4c-0.4-0.3-0.3-0.9-0.9-1c-0.9,0-0.6,0.8-1,1.2c-0.5-0.3-0.3-0.8-0.3-1.1c0-2.6,0-5.3,0-7.9
			c0-0.2,0-0.3,0-0.5c0.2-2,0.2-2-1.9-2c-3.8,0-7.6,0-11.4,0c-0.5,0-0.9-0.1-1.6-0.1c2.1-1.7,4-3.2,5.9-4.8
			c4.1-3.2,8.2-6.5,12.3-9.7c4.8-3.8,9.7-7.7,14.5-11.5c2.1-1.6,4.1-3.2,6.2-4.9c0.6-0.5,1.1-0.6,1.8,0c4.1,3.3,8.2,6.5,12.3,9.7
			c-0.2,0.5-0.7,0.6-1,0.9c-0.4,0.4-0.8,0.3-1.2,0c-3.3-2.7-6.7-5.3-10.1-8c-0.6-0.5-1.1-0.5-1.8,0c-4,3.2-8.1,6.4-12.1,9.6
			C21.2,22.5,14.6,27.8,8,33c-0.2,0.2-0.7,0.3-0.6,0.7c0.1,0.4,0.6,0.3,1,0.3c2.8,0,5.7,0,8.5,0c0.9,0,1.3,0.2,1.3,1.2
			C18.1,39.2,18.1,43.3,18.1,47.4z"/>
	</g>
</g>
<g id="Layer_1_copy">
	<g>
		<path class="st1" d="M25,31.5 M48.7,42.1c0.5,0.8,0.9,1.6,1.4,2.4c0.8,1.4,1.2,3,1.6,4.6c0.4,1.3,0.8,2.8,2.3,3.4
			c0.9,0.4,1.6,1.1,2.2,1.8c0.6,0.7,0.6,1.3-0.2,1.8c-2.8,1.8-6,2.9-9.2,3.5c-1,0.2-1.8-0.4-2.6-0.7c-1-0.3-2.7-0.9-3.5-1.1
			c-0.3-0.1-0.6-0.2-0.9-0.2L31.2,56c-0.7-0.1-1.4-0.4-1.9-0.9c-0.2-0.2-0.5-0.4-0.8-0.6c-1.7-1.1-2-2.1-0.9-3.7
			c0.5-0.8,0.6-1.6,0.7-2.3c0.2-1.4,0.5-2.7,1-3.9c0.3-0.8,1-2.5,2.7-3.9c1.7-1.6,3.6-2.2,4.5-2.4c0.4-0.1,0.9-0.1,1.3-0.1
			c0.7-0.1,1.5-0.1,2.3,0c1.1,0.1,2,0.3,2.7,0.5c0.9,0.1,2.4,0.5,3.9,1.5C47.6,40.9,48.3,41.5,48.7,42.1z M31.3,41"/>
		<path class="st2" d="M64.4,55.6c0.4-0.1,0.2-0.4,0.2-0.7c0.1-0.3,0.3-0.4,0.5-0.3c0.3,0,0.4,0.3,0.4,0.5c0.2,2.2,0.2,4.4,0.1,6.6
			c0,1,0.5,1,1.2,1c4.3,0,8.6,0,13,0c0.6,0,1.2,0,1.2,0.9c0,0.7-0.3,1.1-1,1.1c-1.2,0-2.5,0-3.7,0c-4.8,0-9.7,0-14.5,0
			c-1.6,0-2.5-0.8-3.6-2c1.5,0,2.7-0.1,3.8,0c1.1,0.1,1.4-0.3,1.4-1.4c0-8.6,0-17.2,0-25.8c0-1.5,0-1.6,1.6-1.6c2.6,0,5.3,0,7.9,0
			c0.4,0,0.9,0.2,1.1-0.2c0.2-0.4-0.4-0.6-0.7-0.9c-3.8-3-7.6-6-11.4-9.1c-1.6-1.3-3.5-2.2-4.7-3.8c-0.9-1.2-2.1-1.5-3.1-2.3
			c-0.3-0.2-0.8-0.4-0.5-0.9c0.2-0.4,0.6-0.6,1.1-0.5c1.3,0.2,2.3,1.2,2.4,2.6c0,0.4,0,0.8,0.5,0.9c0.4,0.1,0.8,0.1,0.8-0.4
			c0-0.5,0.3-0.4,0.5-0.2c0.3,0.2,0.6,0.4,0.9,0.6c6,4.8,12,9.6,18,14.4c0.6,0.4,1.1,0.9,1.6,1.3c0.2,0.2,0.4,0.3,0.3,0.6
			c-0.1,0.3-0.4,0.3-0.6,0.3c-4.2,0-8.3,0-12.5-0.1c-1.3,0-1.4,0-1.3,1.3c0.1,5.4,0.1,10.7,0.1,16.1c0,0.3,0,0.8-0.4,0.7
			C63.6,54,64.6,55.1,64.4,55.6z M65.3,50C65.3,50,65.3,50,65.3,50c0-0.6,0-1.1,0-1.7c0-0.4-0.2-0.6-0.6-0.6c-0.4,0-0.6,0.2-0.6,0.6
			c0,1.1,0,2.2,0,3.3c0,0.4,0.2,0.6,0.6,0.6c0.4,0,0.6-0.2,0.6-0.6C65.3,51.2,65.3,50.6,65.3,50z M64.6,47.2
			c0.5-0.1,0.7-0.3,0.8-0.8c0-0.5-0.2-0.8-0.7-0.8c-0.5,0-0.7,0.3-0.8,0.7C63.9,46.9,64.2,47.1,64.6,47.2z"/>
		<path class="st2" d="M18.1,47.4c-0.4-0.3-0.3-0.9-0.9-1c-0.9,0-0.6,0.8-1,1.2c-0.5-0.3-0.3-0.8-0.3-1.1c0-2.6,0-5.3,0-7.9
			c0-0.2,0-0.3,0-0.5c0.2-2,0.2-2-1.9-2c-3.8,0-7.6,0-11.4,0c-0.5,0-0.9-0.1-1.6-0.1c2.1-1.7,4-3.2,5.9-4.8
			c4.1-3.2,8.2-6.5,12.3-9.7c4.8-3.8,9.7-7.7,14.5-11.5c2.1-1.6,4.1-3.2,6.2-4.9c0.6-0.5,1.1-0.6,1.8,0c4.1,3.3,8.2,6.5,12.3,9.7
			c-0.2,0.5-0.7,0.6-1,0.9c-0.4,0.4-0.8,0.3-1.2,0c-3.3-2.7-6.7-5.3-10.1-8c-0.6-0.5-1.1-0.5-1.8,0c-4,3.2-8.1,6.4-12.1,9.6
			C21.2,22.5,14.6,27.8,8,33c-0.2,0.2-0.7,0.3-0.6,0.7c0.1,0.4,0.6,0.3,1,0.3c2.8,0,5.7,0,8.5,0c0.9,0,1.3,0.2,1.3,1.2
			C18.1,39.2,18.1,43.3,18.1,47.4z"/>
		<path class="st1" d="M52.3,53.2c0.5-0.3,1-0.2,1.3,0.3c0.3,0.6-0.4,0.7-0.7,0.8C51,55,49.1,55.7,47.2,56c-0.6,0.1-1.2,0.2-1.9-0.1
			"/>
		<path class="st1" d="M30.4,53.7c2.1-0.1,3.8,1,5.5,0.2c0.1,0,0.3,0.1,0.3,0.1c0.1,0.2,0,0.4-0.2,0.5c-0.5,0.3-1,0.2-1.5,0.2
			C33.1,54.8,31.9,54.3,30.4,53.7z"/>
	</g>
</g>
<g id="Layer_1_copy_3">
	<g>
		<path d="M25,31.5 M48.7,42.1c0.5,0.8,0.9,1.6,1.4,2.4c0.8,1.4,1.2,3,1.6,4.6c0.4,1.3,0.8,2.8,2.3,3.4c0.9,0.4,1.6,1.1,2.2,1.8
			c0.6,0.7,0.6,1.3-0.2,1.8c-2.8,1.8-6,2.9-9.2,3.5c-1,0.2-1.8-0.4-2.6-0.7c-1-0.3-2.7-0.9-3.5-1.1c-0.3-0.1-0.6-0.2-0.9-0.2
			L31.2,56c-0.7-0.1-1.4-0.4-1.9-0.9c-0.2-0.2-0.5-0.4-0.8-0.6c-1.7-1.1-2-2.1-0.9-3.7c0.5-0.8,0.6-1.6,0.7-2.3
			c0.2-1.4,0.5-2.7,1-3.9c0.3-0.8,1-2.5,2.7-3.9c1.7-1.6,3.6-2.2,4.5-2.4c0.4-0.1,0.9-0.1,1.3-0.1c0.7-0.1,1.5-0.1,2.3,0
			c1.1,0.1,2,0.3,2.7,0.5c0.9,0.1,2.4,0.5,3.9,1.5C47.6,40.9,48.3,41.5,48.7,42.1z M31.3,41 M33.6,39.9c4.5-0.6,8.6,1.4,9.6,5.1
			c-1.1-1.3-2.3-2.4-3.6-3.4C36,39,30.9,41,29.9,44.4c-0.5,1.8-1.4,3.5-1.3,5.4c0,0.4-0.2,0.7-0.4,1.1c-0.9,1.1-0.8,2,0.2,2.9
			c1.8,1.5,4,1.8,6.1,2c2.6,0.2,5.1,0.7,7.6,1.6c2.3,0.8,4.4,2.3,7.1,1.2c2.2-0.9,4.4-1.5,6.5-2.8c0.3-0.2,0.9-0.4,0.5-0.9
			c-0.8-1-1.8-1.9-3-2.3c-0.7-0.3-1.1,0.4-1.7,0.7c-2.2,1.1-4.5,1.9-7,1.9c2.4-0.7,4.7-1.5,6.9-2.8c0.7-0.5,0.9-1.1,0.6-1.5
			c-1-1.2-0.8-2.7-1.3-4c-0.9-2.2-2-4.2-4-5.6c0.7,1,1.6,1.9,1.8,3.2c-1.5-2.6-3.7-4.4-6.5-5.3C39.2,38.2,36.3,38.4,33.6,39.9z"/>
		<path class="st2" d="M64.4,55.6c0.4-0.1,0.2-0.4,0.2-0.7c0.1-0.3,0.3-0.4,0.5-0.3c0.3,0,0.4,0.3,0.4,0.5c0.2,2.2,0.2,4.4,0.1,6.6
			c0,1,0.5,1,1.2,1c4.3,0,8.6,0,13,0c0.6,0,1.2,0,1.2,0.9c0,0.7-0.3,1.1-1,1.1c-1.2,0-2.5,0-3.7,0c-4.8,0-9.7,0-14.5,0
			c-1.6,0-2.5-0.8-3.6-2c1.5,0,2.7-0.1,3.8,0c1.1,0.1,1.4-0.3,1.4-1.4c0-8.6,0-17.2,0-25.8c0-1.5,0-1.6,1.6-1.6c2.6,0,5.3,0,7.9,0
			c0.4,0,0.9,0.2,1.1-0.2c0.2-0.4-0.4-0.6-0.7-0.9c-3.8-3-7.6-6-11.4-9.1c-1.6-1.3-3.5-2.2-4.7-3.8c-0.9-1.2-2.1-1.5-3.1-2.3
			c-0.3-0.2-0.8-0.4-0.5-0.9c0.2-0.4,0.6-0.6,1.1-0.5c1.3,0.2,2.3,1.2,2.4,2.6c0,0.4,0,0.8,0.5,0.9c0.4,0.1,0.8,0.1,0.8-0.4
			c0-0.5,0.3-0.4,0.5-0.2c0.3,0.2,0.6,0.4,0.9,0.6c6,4.8,12,9.6,18,14.4c0.6,0.4,1.1,0.9,1.6,1.3c0.2,0.2,0.4,0.3,0.3,0.6
			c-0.1,0.3-0.4,0.3-0.6,0.3c-4.2,0-8.3,0-12.5-0.1c-1.3,0-1.4,0-1.3,1.3c0.1,5.4,0.1,10.7,0.1,16.1c0,0.3,0,0.8-0.4,0.7
			C63.6,54,64.6,55.1,64.4,55.6z M65.3,50C65.3,50,65.3,50,65.3,50c0-0.6,0-1.1,0-1.7c0-0.4-0.2-0.6-0.6-0.6c-0.4,0-0.6,0.2-0.6,0.6
			c0,1.1,0,2.2,0,3.3c0,0.4,0.2,0.6,0.6,0.6c0.4,0,0.6-0.2,0.6-0.6C65.3,51.2,65.3,50.6,65.3,50z M64.6,47.2
			c0.5-0.1,0.7-0.3,0.8-0.8c0-0.5-0.2-0.8-0.7-0.8c-0.5,0-0.7,0.3-0.8,0.7C63.9,46.9,64.2,47.1,64.6,47.2z"/>
		<path class="st2" d="M18.1,47.4c-0.4-0.3-0.3-0.9-0.9-1c-0.9,0-0.6,0.8-1,1.2c-0.5-0.3-0.3-0.8-0.3-1.1c0-2.6,0-5.3,0-7.9
			c0-0.2,0-0.3,0-0.5c0.2-2,0.2-2-1.9-2c-3.8,0-7.6,0-11.4,0c-0.5,0-0.9-0.1-1.6-0.1c2.1-1.7,4-3.2,5.9-4.8
			c4.1-3.2,8.2-6.5,12.3-9.7c4.8-3.8,9.7-7.7,14.5-11.5c2.1-1.6,4.1-3.2,6.2-4.9c0.6-0.5,1.1-0.6,1.8,0c4.1,3.3,8.2,6.5,12.3,9.7
			c-0.2,0.5-0.7,0.6-1,0.9c-0.4,0.4-0.8,0.3-1.2,0c-3.3-2.7-6.7-5.3-10.1-8c-0.6-0.5-1.1-0.5-1.8,0c-4,3.2-8.1,6.4-12.1,9.6
			C21.2,22.5,14.6,27.8,8,33c-0.2,0.2-0.7,0.3-0.6,0.7c0.1,0.4,0.6,0.3,1,0.3c2.8,0,5.7,0,8.5,0c0.9,0,1.3,0.2,1.3,1.2
			C18.1,39.2,18.1,43.3,18.1,47.4z"/>
		<path class="st3" d="M41.4,41.2c2.8,1.3,5.2,3.1,6.8,5.8c0.3,0.4,0.7,1-0.1,1.4c-0.7,0.3-1.4,0.7-1.8-0.4
			C45.3,45.3,43.5,43.2,41.4,41.2z"/>
		<path class="st3" d="M45.3,55.9c2.5-0.4,4.8-1.4,7-2.7c0.5-0.3,1-0.2,1.3,0.3c0.3,0.6-0.4,0.7-0.7,0.8C51,55,49.1,55.7,47.2,56
			C46.6,56.1,46,56.2,45.3,55.9z"/>
		<path class="st3" d="M30.4,53.7c2.1-0.1,3.8,1,5.5,0.2c0.1,0,0.3,0.1,0.3,0.1c0.1,0.2,0,0.4-0.2,0.5c-0.5,0.3-1,0.2-1.5,0.2
			C33.1,54.8,31.9,54.3,30.4,53.7z"/>
		<path class="st3" d="M38.8,54.2c0.8,0,1.7,0,2.5,0c0.3,0,0.5,0,0.8-0.1c0.3,0,0.3-0.7,0.7-0.3c0.2,0.2,0.1,0.4,0,0.7
			c-0.1,0.4-0.4,0.6-0.8,0.5C41,54.7,39.8,54.9,38.8,54.2z"/>
	</g>
</g>
<g id="Layer_1" class="st0">
	<g class="st4">
		<path d="M40.3,57.5c-1.2,0.3-2.2,1.7-3.2,2.6c-0.3,0.3-0.7,0.6-1,0.9c-0.6,0.6-1.1,0.9-1.7,0c-0.1-0.2-0.4-0.4-0.6-0.3
			c-1.3,0.5-1.7-0.5-2.1-1.4c-0.6-1.2-1.2-2.3-1.8-3.5l1.6,0c0.9,1.7,1.6,3,2.3,4.4c0.3,0.6,0.6,0.2,0.8,0c1.1-0.9,2.2-1.9,3.3-2.8
			c0.2-0.1,0.5-0.3,0.4-0.5L40.3,57.5z"/>
		<path class="st2" d="M64.4,55.6c0.4-0.1,0.2-0.4,0.2-0.7c0.1-0.3,0.3-0.4,0.5-0.3c0.3,0,0.4,0.3,0.4,0.5c0.2,2.2,0.2,4.4,0.1,6.6
			c0,1,0.5,1,1.2,1c4.3,0,8.6,0,13,0c0.6,0,1.2,0,1.2,0.9c0,0.7-0.3,1.1-1,1.1c-1.2,0-2.5,0-3.7,0c-4.8,0-9.7,0-14.5,0
			c-1.6,0-2.5-0.8-3.6-2c1.5,0,2.7-0.1,3.8,0c1.1,0.1,1.4-0.3,1.4-1.4c0-8.6,0-17.2,0-25.8c0-1.5,0-1.6,1.6-1.6c2.6,0,5.3,0,7.9,0
			c0.4,0,0.9,0.2,1.1-0.2c0.2-0.4-0.4-0.6-0.7-0.9c-3.8-3-7.6-6-11.4-9.1c-1.6-1.3-3.5-2.2-4.7-3.8c-0.9-1.2-2.1-1.5-3.1-2.3
			c-0.3-0.2-0.8-0.4-0.5-0.9c0.2-0.4,0.6-0.6,1.1-0.5c1.3,0.2,2.3,1.2,2.4,2.6c0,0.4,0,0.8,0.5,0.9c0.4,0.1,0.8,0.1,0.8-0.4
			c0-0.5,0.3-0.4,0.5-0.2c0.3,0.2,0.6,0.4,0.9,0.6c6,4.8,12,9.6,18,14.4c0.6,0.4,1.1,0.9,1.6,1.3c0.2,0.2,0.4,0.3,0.3,0.6
			c-0.1,0.3-0.4,0.3-0.6,0.3c-4.2,0-8.3,0-12.5-0.1c-1.3,0-1.4,0-1.3,1.3c0.1,5.4,0.1,10.7,0.1,16.1c0,0.3,0,0.8-0.4,0.7
			C63.6,54,64.6,55.1,64.4,55.6z M65.3,50C65.3,50,65.3,50,65.3,50c0-0.6,0-1.1,0-1.7c0-0.4-0.2-0.6-0.6-0.6c-0.4,0-0.6,0.2-0.6,0.6
			c0,1.1,0,2.2,0,3.3c0,0.4,0.2,0.6,0.6,0.6c0.4,0,0.6-0.2,0.6-0.6C65.3,51.2,65.3,50.6,65.3,50z M64.6,47.2
			c0.5-0.1,0.7-0.3,0.8-0.8c0-0.5-0.2-0.8-0.7-0.8c-0.5,0-0.7,0.3-0.8,0.7C63.9,46.9,64.2,47.1,64.6,47.2z"/>
		<path class="st2" d="M18.1,47.4c-0.4-0.3-0.3-0.9-0.9-1c-0.9,0-0.6,0.8-1,1.2c-0.5-0.3-0.3-0.8-0.3-1.1c0-2.6,0-5.3,0-7.9
			c0-0.2,0-0.3,0-0.5c0.2-2,0.2-2-1.9-2c-3.8,0-7.6,0-11.4,0c-0.5,0-0.9-0.1-1.6-0.1c2.1-1.7,4-3.2,5.9-4.8
			c4.1-3.2,8.2-6.5,12.3-9.7c4.8-3.8,9.7-7.7,14.5-11.5c2.1-1.6,4.1-3.2,6.2-4.9c0.6-0.5,1.1-0.6,1.8,0c4.1,3.3,8.2,6.5,12.3,9.7
			c-0.2,0.5-0.7,0.6-1,0.9c-0.4,0.4-0.8,0.3-1.2,0c-3.3-2.7-6.7-5.3-10.1-8c-0.6-0.5-1.1-0.5-1.8,0c-4,3.2-8.1,6.4-12.1,9.6
			C21.2,22.5,14.6,27.8,8,33c-0.2,0.2-0.7,0.3-0.6,0.7c0.1,0.4,0.6,0.3,1,0.3c2.8,0,5.7,0,8.5,0c0.9,0,1.3,0.2,1.3,1.2
			C18.1,39.2,18.1,43.3,18.1,47.4z"/>
		<path d="M33.2,63.1c0.8-0.2,1.3-0.1,1.9,0.2c2.2,1.3,4.2,1.2,6.4-0.5c3.1-2.4,6.7-2.2,10.3-0.9c1.5,0.5,2.9,1.3,4,2.3
			c0.3,0.2,1,0.3,0.5,1.1c-0.5,0.6-0.8,0.5-1.4,0.1c-1.7-1.4-3.6-2.3-5.8-2.8c-2.7-0.6-5.1,0-7.3,1.5C38.6,66.4,36.2,66.2,33.2,63.1
			z"/>
		<path d="M33.7,62.4c-0.5,0-0.8,0-0.8-0.5c0-0.5,0.3-0.6,0.7-0.6c0.5,0,0.8,0.3,0.8,0.7C34.5,62.5,34,62.4,33.7,62.4z"/>
		<path d="M38.8,54.2"/>
	</g>
</g>
<g id="Layer_2">
	<g>
		<line class="st5" x1="0.5" y1="63.6" x2="30.4" y2="63.6"/>
		<line class="st5" x1="58.6" y1="63.6" x2="81.1" y2="63.6"/>
		<path class="st5" d="M64.7,62.8V35.4c0-0.8,0.6-1.4,1.4-1.4h9.6c0.7,0,0.9-0.8,0.4-1.2l-33-25.6c-1.4-1.1-3.4-1.1-4.9,0L2.9,35.2
			c-0.5,0.4-0.2,1.2,0.4,1.2h12c0.8,0,1.4,0.6,1.4,1.4v25.8"/>
	</g>
</g>
</svg>
